<svg xmlns="http://www.w3.org/2000/svg" width="30.42" height="33.189" viewBox="0 0 30.42 33.189">
  <g id="tasks-list-svgrepo-com" transform="translate(-20.5)">
    <g id="Group_154" data-name="Group 154" transform="translate(34.322 16.591)">
      <g id="Group_153" data-name="Group 153" transform="translate(0)">
        <path id="Path_4457" data-name="Path 4457" d="M233.5,245.7a8.3,8.3,0,1,0,8.3,8.3A8.305,8.305,0,0,0,233.5,245.7Zm3.741,7.894-2.769,2.769a1.386,1.386,0,0,1-1.958,0l-1.384-1.384a1.385,1.385,0,0,1,1.958-1.958l.405.405,1.789-1.789a1.385,1.385,0,0,1,1.958,1.958Z" transform="translate(-225.2 -245.7)" fill="#fff"/>
      </g>
    </g>
    <g id="Group_156" data-name="Group 156" transform="translate(20.5)">
      <g id="Group_155" data-name="Group 155" transform="translate(0)">
        <path id="Path_4458" data-name="Path 4458" d="M45.133,2.769h-3.9V2.107A2.109,2.109,0,0,0,39.13,0H29.515a2.109,2.109,0,0,0-2.107,2.107v.655H23.518A3.022,3.022,0,0,0,20.5,5.78V30.163a3.022,3.022,0,0,0,3.018,3.018h11.81a10.981,10.981,0,0,1-3.768-8.292H26.03a1.384,1.384,0,1,1,0-2.769h5.53a1.482,1.482,0,0,1,.344.068,11.207,11.207,0,0,1,1.148-2.836H27.408a1.384,1.384,0,1,1,0-2.769h6.915a1.332,1.332,0,0,1,.736.243,10.981,10.981,0,0,1,13.093-1.513V5.787A3.022,3.022,0,0,0,45.133,2.769ZM30.176,12.445H27.408a1.384,1.384,0,1,1,0-2.769h2.769a1.384,1.384,0,0,1,0,2.769Zm0-6.915V2.762h8.3V5.53Zm11.061,6.915h-5.53a1.384,1.384,0,0,1,0-2.769h5.53a1.384,1.384,0,1,1,0,2.769Z" transform="translate(-20.5)" fill="#fff"/>
      </g>
    </g>
  </g>
</svg>
